<svg viewBox="0 0 60 60" xmlns="http://www.w3.org/2000/svg">
    <g transform="translate(35,30)">
        <path fill="gray" d="M7.833516594546e-16,12.793103448275861A12.793103448275861,12.793103448275861,0,1,1,-2.3500549783638e-15,-12.793103448275861L-1.2668759991179515e-15,-6.896551724137931A6.896551724137931,6.896551724137931,0,1,0,4.2229199970598384e-16,6.896551724137931Z"></path>
        <path fill="gray" d="M1.2056436591605839e-15,19.689655172413794A19.689655172413794,19.689655172413794,0,0,1,-19.689655172413794,2.4112873183211678e-15L-13.793103448275861,1.6891679988239354e-15A13.793103448275861,13.793103448275861,0,0,0,8.445839994119677e-16,13.793103448275861Z"></path>
        <path fill="gray" d="M-19.689655172413794,2.4112873183211678e-15A19.689655172413794,19.689655172413794,0,0,1,-3.616930977481752e-15,-19.689655172413794L-2.533751998235903e-15,-13.793103448275861A13.793103448275861,13.793103448275861,0,0,0,-13.793103448275861,1.6891679988239354e-15Z"></path>
        <path fill="gray" d="M-26.586206896551722,3.2558713177331356e-15A26.586206896551722,26.586206896551722,0,0,1,-18.799287182580283,-18.79928718258028L-14.629795472825124,-14.629795472825121A20.689655172413794,20.689655172413794,0,0,0,-20.689655172413794,2.5337519982359033e-15Z"></path>
        <path fill="gray" d="M-30.934035381671006,-12.813296994017325A33.48275862068965,33.48275862068965,0,0,1,-23.675885673521968,-23.675885673522004L-19.50639396376681,-19.506393963766843A27.586206896551722,27.586206896551722,0,0,0,-25.486331931345838,-10.556784341105931Z"></path>
        <path fill="gray" d="M-18.79928718258028,18.79928718258028A26.586206896551722,26.586206896551722,0,0,1,-26.586206896551722,3.2558713177331356e-15L-20.689655172413794,2.5337519982359033e-15A20.689655172413794,20.689655172413794,0,0,0,-14.629795472825121,14.629795472825123Z" style="cursor: pointer;"></path>
        <line x1="4" y1="-20" x2="4" y2="20" stroke="gray" stroke-width="4"/>
        <line x1="4" y1="-14" x2="20" y2="-14" stroke="gray" stroke-width="4"/>
        <line x1="4" y1="-8" x2="15" y2="-8" stroke="gray" stroke-width="4"/>
        <line x1="4" y1="-1" x2="10" y2="-1" stroke="gray" stroke-width="4"/>
        <line x1="4" y1="18" x2="20" y2="18" stroke="gray" stroke-width="4"/>
    </g>
</svg>