<svg xmlns="http://www.w3.org/2000/svg" viewBox="0 0 500 500">
    <rect x="0" y="0" width="20" height="20" style="fill:green"/>
    <rect x="20" y="0" width="20" height="20" style="fill:green"/>
    <rect x="40" y="0" width="20" height="20" style="fill:green"/>
    <rect x="60" y="0" width="20" height="20" style="fill:green"/>
    <rect x="80" y="0" width="20" height="20" style="fill:green"/>
    <rect x="100" y="0" width="20" height="20" style="fill:green"/>
    <rect x="120" y="0" width="20" height="20" style="fill:green"/>
    <rect x="140" y="0" width="20" height="20" style="fill:green"/>
    <rect x="160" y="0" width="20" height="20" style="fill:green"/>
    <rect x="180" y="0" width="20" height="20" style="fill:green"/>
    <rect x="200" y="0" width="20" height="20" style="fill:green"/>
    <rect x="220" y="0" width="20" height="20" style="fill:green"/>
    <rect x="240" y="0" width="20" height="20" style="fill:green"/>
    <rect x="260" y="0" width="20" height="20" style="fill:green"/>
    <rect x="280" y="0" width="20" height="20" style="fill:green"/>
    <rect x="300" y="0" width="20" height="20" style="fill:green"/>
    <rect x="320" y="0" width="20" height="20" style="fill:green"/>
    <rect x="340" y="0" width="20" height="20" style="fill:green"/>
    <rect x="360" y="0" width="20" height="20" style="fill:green"/>
    <rect x="380" y="0" width="20" height="20" style="fill:green"/>
    <rect x="400" y="0" width="20" height="20" style="fill:green"/>
    <rect x="0" y="20" width="20" height="20" style="fill:green"/>
    <rect x="80" y="20" width="20" height="20" style="fill:green"/>
    <rect x="120" y="20" width="20" height="20" style="fill:green"/>
    <rect x="160" y="20" width="20" height="20" style="fill:green"/>
    <rect x="320" y="20" width="20" height="20" style="fill:green"/>
    <rect x="400" y="20" width="20" height="20" style="fill:green"/>
    <rect x="0" y="40" width="20" height="20" style="fill:green"/>
    <rect x="40" y="40" width="20" height="20" style="fill:green"/>
    <rect x="60" y="40" width="20" height="20" style="fill:green"/>
    <rect x="80" y="40" width="20" height="20" style="fill:green"/>
    <rect x="120" y="40" width="20" height="20" style="fill:green"/>
    <rect x="160" y="40" width="20" height="20" style="fill:green"/>
    <rect x="180" y="40" width="20" height="20" style="fill:green"/>
    <rect x="200" y="40" width="20" height="20" style="fill:green"/>
    <rect x="240" y="40" width="20" height="20" style="fill:green"/>
    <rect x="280" y="40" width="20" height="20" style="fill:green"/>
    <rect x="320" y="40" width="20" height="20" style="fill:green"/>
    <rect x="360" y="40" width="20" height="20" style="fill:green"/>
    <rect x="380" y="40" width="20" height="20" style="fill:green"/>
    <rect x="400" y="40" width="20" height="20" style="fill:green"/>
    <rect x="0" y="60" width="20" height="20" style="fill:green"/>
    <rect x="80" y="60" width="20" height="20" style="fill:green"/>
    <rect x="200" y="60" width="20" height="20" style="fill:green"/>
    <rect x="240" y="60" width="20" height="20" style="fill:green"/>
    <rect x="280" y="60" width="20" height="20" style="fill:green"/>
    <rect x="360" y="60" width="20" height="20" style="fill:green"/>
    <rect x="400" y="60" width="20" height="20" style="fill:green"/>
    <rect x="0" y="80" width="20" height="20" style="fill:green"/>
    <rect x="40" y="80" width="20" height="20" style="fill:green"/>
    <rect x="80" y="80" width="20" height="20" style="fill:green"/>
    <rect x="100" y="80" width="20" height="20" style="fill:green"/>
    <rect x="120" y="80" width="20" height="20" style="fill:green"/>
    <rect x="160" y="80" width="20" height="20" style="fill:green"/>
    <rect x="180" y="80" width="20" height="20" style="fill:green"/>
    <rect x="200" y="80" width="20" height="20" style="fill:green"/>
    <rect x="240" y="80" width="20" height="20" style="fill:green"/>
    <rect x="260" y="80" width="20" height="20" style="fill:green"/>
    <rect x="280" y="80" width="20" height="20" style="fill:green"/>
    <rect x="320" y="80" width="20" height="20" style="fill:green"/>
    <rect x="340" y="80" width="20" height="20" style="fill:green"/>
    <rect x="360" y="80" width="20" height="20" style="fill:green"/>
    <rect x="400" y="80" width="20" height="20" style="fill:green"/>
    <rect x="0" y="100" width="20" height="20" style="fill:green"/>
    <rect x="40" y="100" width="20" height="20" style="fill:green"/>
    <rect x="80" y="100" width="20" height="20" style="fill:green"/>
    <rect x="120" y="100" width="20" height="20" style="fill:green"/>
    <rect x="160" y="100" width="20" height="20" style="fill:green"/>
    <rect x="200" y="100" width="20" height="20" style="fill:green"/>
    <rect x="240" y="100" width="20" height="20" style="fill:green"/>
    <rect x="280" y="100" width="20" height="20" style="fill:green"/>
    <rect x="320" y="100" width="20" height="20" style="fill:green"/>
    <rect x="360" y="100" width="20" height="20" style="fill:green"/>
    <rect x="400" y="100" width="20" height="20" style="fill:green"/>
    <rect x="0" y="120" width="20" height="20" style="fill:green"/>
    <rect x="20" y="120" width="20" height="20" style="fill:green"/>
    <rect x="40" y="120" width="20" height="20" style="fill:green"/>
    <rect x="80" y="120" width="20" height="20" style="fill:green"/>
    <rect x="120" y="120" width="20" height="20" style="fill:green"/>
    <rect x="160" y="120" width="20" height="20" style="fill:green"/>
    <rect x="200" y="120" width="20" height="20" style="fill:green"/>
    <rect x="220" y="120" width="20" height="20" style="fill:green"/>
    <rect x="240" y="120" width="20" height="20" style="fill:green"/>
    <rect x="280" y="120" width="20" height="20" style="fill:green"/>
    <rect x="320" y="120" width="20" height="20" style="fill:green"/>
    <rect x="360" y="120" width="20" height="20" style="fill:green"/>
    <rect x="400" y="120" width="20" height="20" style="fill:green"/>
    <rect x="0" y="140" width="20" height="20" style="fill:green"/>
    <rect x="120" y="140" width="20" height="20" style="fill:green"/>
    <rect x="240" y="140" width="20" height="20" style="fill:green"/>
    <rect x="360" y="140" width="20" height="20" style="fill:green"/>
    <rect x="400" y="140" width="20" height="20" style="fill:green"/>
    <rect x="0" y="160" width="20" height="20" style="fill:green"/>
    <rect x="20" y="160" width="20" height="20" style="fill:green"/>
    <rect x="40" y="160" width="20" height="20" style="fill:green"/>
    <rect x="80" y="160" width="20" height="20" style="fill:green"/>
    <rect x="100" y="160" width="20" height="20" style="fill:green"/>
    <rect x="120" y="160" width="20" height="20" style="fill:green"/>
    <rect x="140" y="160" width="20" height="20" style="fill:green"/>
    <rect x="160" y="160" width="20" height="20" style="fill:green"/>
    <rect x="180" y="160" width="20" height="20" style="fill:green"/>
    <rect x="200" y="160" width="20" height="20" style="fill:green"/>
    <rect x="240" y="160" width="20" height="20" style="fill:green"/>
    <rect x="280" y="160" width="20" height="20" style="fill:green"/>
    <rect x="320" y="160" width="20" height="20" style="fill:green"/>
    <rect x="360" y="160" width="20" height="20" style="fill:green"/>
    <rect x="400" y="160" width="20" height="20" style="fill:green"/>
    <rect x="0" y="180" width="20" height="20" style="fill:green"/>
    <rect x="240" y="180" width="20" height="20" style="fill:green"/>
    <rect x="280" y="180" width="20" height="20" style="fill:green"/>
    <rect x="320" y="180" width="20" height="20" style="fill:green"/>
    <rect x="400" y="180" width="20" height="20" style="fill:green"/>
    <rect x="0" y="200" width="20" height="20" style="fill:green"/>
    <rect x="40" y="200" width="20" height="20" style="fill:green"/>
    <rect x="60" y="200" width="20" height="20" style="fill:green"/>
    <rect x="80" y="200" width="20" height="20" style="fill:green"/>
    <rect x="100" y="200" width="20" height="20" style="fill:green"/>
    <rect x="120" y="200" width="20" height="20" style="fill:green"/>
    <rect x="140" y="200" width="20" height="20" style="fill:green"/>
    <rect x="160" y="200" width="20" height="20" style="fill:green"/>
    <rect x="200" y="200" width="20" height="20" style="fill:green"/>
    <rect x="220" y="200" width="20" height="20" style="fill:green"/>
    <rect x="240" y="200" width="20" height="20" style="fill:green"/>
    <rect x="260" y="200" width="20" height="20" style="fill:green"/>
    <rect x="280" y="200" width="20" height="20" style="fill:green"/>
    <rect x="300" y="200" width="20" height="20" style="fill:green"/>
    <rect x="320" y="200" width="20" height="20" style="fill:green"/>
    <rect x="340" y="200" width="20" height="20" style="fill:green"/>
    <rect x="360" y="200" width="20" height="20" style="fill:green"/>
    <rect x="400" y="200" width="20" height="20" style="fill:green"/>
    <rect x="0" y="220" width="20" height="20" style="fill:green"/>
    <rect x="40" y="220" width="20" height="20" style="fill:green"/>
    <rect x="280" y="220" width="20" height="20" style="fill:green"/>
    <rect x="320" y="220" width="20" height="20" style="fill:green"/>
    <rect x="400" y="220" width="20" height="20" style="fill:green"/>
    <rect x="0" y="240" width="20" height="20" style="fill:green"/>
    <rect x="40" y="240" width="20" height="20" style="fill:green"/>
    <rect x="60" y="240" width="20" height="20" style="fill:green"/>
    <rect x="80" y="240" width="20" height="20" style="fill:green"/>
    <rect x="100" y="240" width="20" height="20" style="fill:green"/>
    <rect x="120" y="240" width="20" height="20" style="fill:green"/>
    <rect x="160" y="240" width="20" height="20" style="fill:green"/>
    <rect x="180" y="240" width="20" height="20" style="fill:green"/>
    <rect x="200" y="240" width="20" height="20" style="fill:green"/>
    <rect x="220" y="240" width="20" height="20" style="fill:green"/>
    <rect x="240" y="240" width="20" height="20" style="fill:green"/>
    <rect x="260" y="240" width="20" height="20" style="fill:green"/>
    <rect x="280" y="240" width="20" height="20" style="fill:green"/>
    <rect x="320" y="240" width="20" height="20" style="fill:green"/>
    <rect x="360" y="240" width="20" height="20" style="fill:green"/>
    <rect x="400" y="240" width="20" height="20" style="fill:green"/>
    <rect x="0" y="260" width="20" height="20" style="fill:green"/>
    <rect x="80" y="260" width="20" height="20" style="fill:green"/>
    <rect x="160" y="260" width="20" height="20" style="fill:green"/>
    <rect x="200" y="260" width="20" height="20" style="fill:green"/>
    <rect x="240" y="260" width="20" height="20" style="fill:green"/>
    <rect x="280" y="260" width="20" height="20" style="fill:green"/>
    <rect x="360" y="260" width="20" height="20" style="fill:green"/>
    <rect x="400" y="260" width="20" height="20" style="fill:green"/>
    <rect x="0" y="280" width="20" height="20" style="fill:green"/>
    <rect x="20" y="280" width="20" height="20" style="fill:green"/>
    <rect x="40" y="280" width="20" height="20" style="fill:green"/>
    <rect x="80" y="280" width="20" height="20" style="fill:green"/>
    <rect x="120" y="280" width="20" height="20" style="fill:green"/>
    <rect x="140" y="280" width="20" height="20" style="fill:green"/>
    <rect x="160" y="280" width="20" height="20" style="fill:green"/>
    <rect x="200" y="280" width="20" height="20" style="fill:green"/>
    <rect x="240" y="280" width="20" height="20" style="fill:green"/>
    <rect x="280" y="280" width="20" height="20" style="fill:green"/>
    <rect x="320" y="280" width="20" height="20" style="fill:green"/>
    <rect x="340" y="280" width="20" height="20" style="fill:green"/>
    <rect x="360" y="280" width="20" height="20" style="fill:green"/>
    <rect x="380" y="280" width="20" height="20" style="fill:green"/>
    <rect x="400" y="280" width="20" height="20" style="fill:green"/>
    <rect x="0" y="300" width="20" height="20" style="fill:green"/>
    <rect x="80" y="300" width="20" height="20" style="fill:green"/>
    <rect x="160" y="300" width="20" height="20" style="fill:green"/>
    <rect x="320" y="300" width="20" height="20" style="fill:green"/>
    <rect x="400" y="300" width="20" height="20" style="fill:green"/>
    <rect x="0" y="320" width="20" height="20" style="fill:green"/>
    <rect x="20" y="320" width="20" height="20" style="fill:green"/>
    <rect x="40" y="320" width="20" height="20" style="fill:green"/>
    <rect x="80" y="320" width="20" height="20" style="fill:green"/>
    <rect x="120" y="320" width="20" height="20" style="fill:green"/>
    <rect x="140" y="320" width="20" height="20" style="fill:green"/>
    <rect x="160" y="320" width="20" height="20" style="fill:green"/>
    <rect x="180" y="320" width="20" height="20" style="fill:green"/>
    <rect x="200" y="320" width="20" height="20" style="fill:green"/>
    <rect x="220" y="320" width="20" height="20" style="fill:green"/>
    <rect x="240" y="320" width="20" height="20" style="fill:green"/>
    <rect x="260" y="320" width="20" height="20" style="fill:green"/>
    <rect x="280" y="320" width="20" height="20" style="fill:green"/>
    <rect x="320" y="320" width="20" height="20" style="fill:green"/>
    <rect x="340" y="320" width="20" height="20" style="fill:green"/>
    <rect x="360" y="320" width="20" height="20" style="fill:green"/>
    <rect x="400" y="320" width="20" height="20" style="fill:green"/>
    <rect x="0" y="340" width="20" height="20" style="fill:green"/>
    <rect x="40" y="340" width="20" height="20" style="fill:green"/>
    <rect x="80" y="340" width="20" height="20" style="fill:green"/>
    <rect x="120" y="340" width="20" height="20" style="fill:green"/>
    <rect x="240" y="340" width="20" height="20" style="fill:green"/>
    <rect x="320" y="340" width="20" height="20" style="fill:green"/>
    <rect x="360" y="340" width="20" height="20" style="fill:green"/>
    <rect x="400" y="340" width="20" height="20" style="fill:green"/>
    <rect x="0" y="360" width="20" height="20" style="fill:green"/>
    <rect x="40" y="360" width="20" height="20" style="fill:green"/>
    <rect x="80" y="360" width="20" height="20" style="fill:green"/>
    <rect x="100" y="360" width="20" height="20" style="fill:green"/>
    <rect x="120" y="360" width="20" height="20" style="fill:green"/>
    <rect x="160" y="360" width="20" height="20" style="fill:green"/>
    <rect x="180" y="360" width="20" height="20" style="fill:green"/>
    <rect x="200" y="360" width="20" height="20" style="fill:green"/>
    <rect x="220" y="360" width="20" height="20" style="fill:green"/>
    <rect x="240" y="360" width="20" height="20" style="fill:green"/>
    <rect x="280" y="360" width="20" height="20" style="fill:green"/>
    <rect x="300" y="360" width="20" height="20" style="fill:green"/>
    <rect x="320" y="360" width="20" height="20" style="fill:green"/>
    <rect x="360" y="360" width="20" height="20" style="fill:green"/>
    <rect x="400" y="360" width="20" height="20" style="fill:green"/>
    <rect x="0" y="380" width="20" height="20" style="fill:green"/>
    <rect x="400" y="380" width="20" height="20" style="fill:green"/>
    <rect x="0" y="400" width="20" height="20" style="fill:green"/>
    <rect x="20" y="400" width="20" height="20" style="fill:green"/>
    <rect x="40" y="400" width="20" height="20" style="fill:green"/>
    <rect x="60" y="400" width="20" height="20" style="fill:green"/>
    <rect x="80" y="400" width="20" height="20" style="fill:green"/>
    <rect x="100" y="400" width="20" height="20" style="fill:green"/>
    <rect x="120" y="400" width="20" height="20" style="fill:green"/>
    <rect x="140" y="400" width="20" height="20" style="fill:green"/>
    <rect x="160" y="400" width="20" height="20" style="fill:green"/>
    <rect x="180" y="400" width="20" height="20" style="fill:green"/>
    <rect x="200" y="400" width="20" height="20" style="fill:green"/>
    <rect x="220" y="400" width="20" height="20" style="fill:green"/>
    <rect x="240" y="400" width="20" height="20" style="fill:green"/>
    <rect x="260" y="400" width="20" height="20" style="fill:green"/>
    <rect x="280" y="400" width="20" height="20" style="fill:green"/>
    <rect x="300" y="400" width="20" height="20" style="fill:green"/>
    <rect x="320" y="400" width="20" height="20" style="fill:green"/>
    <rect x="340" y="400" width="20" height="20" style="fill:green"/>
    <rect x="360" y="400" width="20" height="20" style="fill:green"/>
    <rect x="380" y="400" width="20" height="20" style="fill:green"/>
    <rect x="400" y="400" width="20" height="20" style="fill:green"/>
</svg>