<svg xmlns="http://www.w3.org/2000/svg" viewBox="-20 20 400 400">
    <polygon points="240,240 280,200 280,120 240,160" style="fill:red;stroke:black;stroke-width:3" />
    <polygon points="240,320 280,280 280,200 240,240" style="fill:red;stroke:black;stroke-width:3" />
    <polygon points="240,400 280,360 280,280 240,320" style="fill:red;stroke:black;stroke-width:3" />
    <polygon points="280,200 320,160 320,80 280,120" style="fill:red;stroke:black;stroke-width:3" />
    <polygon points="280,280 320,240 320,160 280,200" style="fill:red;stroke:black;stroke-width:3" />
    <polygon points="280,360 320,320 320,240 280,280" style="fill:red;stroke:black;stroke-width:3" />
    <polygon points="320,160 360,120 360,40 320,80" style="fill:red;stroke:black;stroke-width:3" />
    <polygon points="320,240 360,200 360,120 320,160" style="fill:red;stroke:black;stroke-width:3" />
    <polygon points="320,320 360,280 360,200 320,240" style="fill:red;stroke:black;stroke-width:3" />
    <polygon points="240,80 280,40 360,40 320,80" style="fill:lime;stroke:black;stroke-width:3" />
    <polygon points="160,80 200,40 280,40 240,80" style="fill:lime;stroke:black;stroke-width:3" />
    <polygon points="80,80 120,40 200,40 160,80" style="fill:lime;stroke:black;stroke-width:3" />
    <polygon points="200,120 240,80 320,80 280,120" style="fill:lime;stroke:black;stroke-width:3" />
    <polygon points="120,120 160,80 240,80 200,120" style="fill:lime;stroke:black;stroke-width:3" />
    <polygon points="40,120 80,80 160,80 120,120" style="fill:lime;stroke:black;stroke-width:3" />
    <polygon points="160,160 200,120 280,120 240,160" style="fill:lime;stroke:black;stroke-width:3" />
    <polygon points="80,160 120,120 200,120 160,160" style="fill:lime;stroke:black;stroke-width:3" />
    <polygon points="0,160 40,120 120,120 80,160" style="fill:lime;stroke:black;stroke-width:3" />
    <rect x="160" y="160" width="80" height="80" style="fill:blue;stroke:black;stroke-width:3"/>
    <rect x="160" y="240" width="80" height="80" style="fill:blue;stroke:black;stroke-width:3"/>
    <rect x="160" y="320" width="80" height="80" style="fill:blue;stroke:black;stroke-width:3"/>
    <rect x="80" y="160" width="80" height="80" style="fill:blue;stroke:black;stroke-width:3"/>
    <rect x="80" y="240" width="80" height="80" style="fill:blue;stroke:black;stroke-width:3"/>
    <rect x="80" y="320" width="80" height="80" style="fill:blue;stroke:black;stroke-width:3"/>
    <rect x="0" y="160" width="80" height="80" style="fill:blue;stroke:black;stroke-width:3"/>
    <rect x="0" y="240" width="80" height="80" style="fill:blue;stroke:black;stroke-width:3"/>
    <rect x="0" y="320" width="80" height="80" style="fill:blue;stroke:black;stroke-width:3"/>
</svg>